<mxfile host="app.diagrams.net" agent="Mozilla/5.0 (Windows NT 10.0; Win64; x64) AppleWebKit/537.36 (KHTML, like Gecko) Chrome/132.0.0.0 Safari/537.36 OPR/117.0.0.0" version="26.2.9">
  <diagram name="Página-1" id="fcZGEO5fL5dIFAvt793S">
    <mxGraphModel grid="1" page="1" gridSize="10" guides="1" tooltips="1" connect="1" arrows="1" fold="1" pageScale="2" pageWidth="827" pageHeight="1169" math="0" shadow="0">
      <root>
        <mxCell id="0" />
        <mxCell id="1" parent="0" />
        <mxCell id="Zh_6LVyNE36v8ovMs_AO-1" value="Militar" style="shape=umlActor;verticalLabelPosition=bottom;verticalAlign=top;html=1;outlineConnect=0;" vertex="1" parent="1">
          <mxGeometry x="90" y="255" width="30" height="60" as="geometry" />
        </mxCell>
        <mxCell id="Zh_6LVyNE36v8ovMs_AO-2" value="Autenticador" style="shape=umlActor;verticalLabelPosition=bottom;verticalAlign=top;html=1;outlineConnect=0;" vertex="1" parent="1">
          <mxGeometry x="780" y="320" width="30" height="60" as="geometry" />
        </mxCell>
        <mxCell id="Zh_6LVyNE36v8ovMs_AO-3" value="Embarcador" style="shape=umlActor;verticalLabelPosition=bottom;verticalAlign=top;html=1;outlineConnect=0;" vertex="1" parent="1">
          <mxGeometry x="720" y="595" width="30" height="60" as="geometry" />
        </mxCell>
        <mxCell id="Zh_6LVyNE36v8ovMs_AO-4" value="Monitor" style="shape=umlActor;verticalLabelPosition=bottom;verticalAlign=top;html=1;outlineConnect=0;" vertex="1" parent="1">
          <mxGeometry x="90" y="590" width="30" height="60" as="geometry" />
        </mxCell>
        <mxCell id="Zh_6LVyNE36v8ovMs_AO-11" style="edgeStyle=orthogonalEdgeStyle;rounded=0;orthogonalLoop=1;jettySize=auto;html=1;exitX=0;exitY=0.5;exitDx=0;exitDy=0;" edge="1" parent="1" source="Zh_6LVyNE36v8ovMs_AO-5" target="Zh_6LVyNE36v8ovMs_AO-1">
          <mxGeometry relative="1" as="geometry" />
        </mxCell>
        <mxCell id="Zh_6LVyNE36v8ovMs_AO-5" value="Fornecer Credenciais" style="ellipse;whiteSpace=wrap;html=1;" vertex="1" parent="1">
          <mxGeometry x="180" y="250" width="140" height="70" as="geometry" />
        </mxCell>
        <mxCell id="Zh_6LVyNE36v8ovMs_AO-12" style="edgeStyle=orthogonalEdgeStyle;rounded=0;orthogonalLoop=1;jettySize=auto;html=1;exitX=0;exitY=0.5;exitDx=0;exitDy=0;entryX=1;entryY=0.5;entryDx=0;entryDy=0;dashed=1;endArrow=none;startFill=1;startArrow=classic;" edge="1" parent="1" source="Zh_6LVyNE36v8ovMs_AO-6" target="Zh_6LVyNE36v8ovMs_AO-5">
          <mxGeometry relative="1" as="geometry" />
        </mxCell>
        <mxCell id="Zh_6LVyNE36v8ovMs_AO-13" style="edgeStyle=orthogonalEdgeStyle;rounded=0;orthogonalLoop=1;jettySize=auto;html=1;exitX=1;exitY=0.5;exitDx=0;exitDy=0;" edge="1" parent="1" source="Zh_6LVyNE36v8ovMs_AO-6">
          <mxGeometry relative="1" as="geometry">
            <mxPoint x="770" y="360" as="targetPoint" />
            <Array as="points">
              <mxPoint x="675" y="285" />
              <mxPoint x="675" y="360" />
            </Array>
          </mxGeometry>
        </mxCell>
        <mxCell id="rQKXnc7s0rOHXH3DAHLv-1" style="edgeStyle=orthogonalEdgeStyle;rounded=0;orthogonalLoop=1;jettySize=auto;html=1;exitX=0.5;exitY=1;exitDx=0;exitDy=0;entryX=0.5;entryY=0;entryDx=0;entryDy=0;dashed=1;" edge="1" parent="1" source="Zh_6LVyNE36v8ovMs_AO-6" target="Zh_6LVyNE36v8ovMs_AO-7">
          <mxGeometry relative="1" as="geometry" />
        </mxCell>
        <mxCell id="Zh_6LVyNE36v8ovMs_AO-6" value="Verificar credenciais" style="ellipse;whiteSpace=wrap;html=1;" vertex="1" parent="1">
          <mxGeometry x="450" y="250" width="150" height="70" as="geometry" />
        </mxCell>
        <mxCell id="rQKXnc7s0rOHXH3DAHLv-2" style="edgeStyle=orthogonalEdgeStyle;rounded=0;orthogonalLoop=1;jettySize=auto;html=1;exitX=0;exitY=0.5;exitDx=0;exitDy=0;entryX=0.5;entryY=1;entryDx=0;entryDy=0;dashed=1;" edge="1" parent="1" source="Zh_6LVyNE36v8ovMs_AO-7" target="Zh_6LVyNE36v8ovMs_AO-5">
          <mxGeometry relative="1" as="geometry" />
        </mxCell>
        <mxCell id="rQKXnc7s0rOHXH3DAHLv-10" style="edgeStyle=orthogonalEdgeStyle;rounded=0;orthogonalLoop=1;jettySize=auto;html=1;exitX=0.5;exitY=1;exitDx=0;exitDy=0;entryX=0.5;entryY=0;entryDx=0;entryDy=0;dashed=1;" edge="1" parent="1" source="Zh_6LVyNE36v8ovMs_AO-7" target="rQKXnc7s0rOHXH3DAHLv-6">
          <mxGeometry relative="1" as="geometry" />
        </mxCell>
        <mxCell id="rQKXnc7s0rOHXH3DAHLv-26" style="edgeStyle=orthogonalEdgeStyle;rounded=0;orthogonalLoop=1;jettySize=auto;html=1;exitX=1;exitY=0.5;exitDx=0;exitDy=0;" edge="1" parent="1" source="Zh_6LVyNE36v8ovMs_AO-7">
          <mxGeometry relative="1" as="geometry">
            <mxPoint x="760" y="380" as="targetPoint" />
          </mxGeometry>
        </mxCell>
        <mxCell id="Zh_6LVyNE36v8ovMs_AO-7" value="Autenticar operador" style="ellipse;whiteSpace=wrap;html=1;" vertex="1" parent="1">
          <mxGeometry x="450" y="370" width="150" height="70" as="geometry" />
        </mxCell>
        <mxCell id="rQKXnc7s0rOHXH3DAHLv-3" value="&amp;lt;extend&amp;gt;" style="text;html=1;align=center;verticalAlign=middle;resizable=0;points=[];autosize=1;strokeColor=none;fillColor=none;" vertex="1" parent="1">
          <mxGeometry x="285" y="368" width="70" height="30" as="geometry" />
        </mxCell>
        <mxCell id="rQKXnc7s0rOHXH3DAHLv-4" value="&amp;lt;include&amp;gt;" style="text;html=1;align=center;verticalAlign=middle;resizable=0;points=[];autosize=1;strokeColor=none;fillColor=none;" vertex="1" parent="1">
          <mxGeometry x="340" y="250" width="80" height="30" as="geometry" />
        </mxCell>
        <mxCell id="rQKXnc7s0rOHXH3DAHLv-5" value="&amp;lt;include&amp;gt;" style="text;html=1;align=center;verticalAlign=middle;resizable=0;points=[];autosize=1;strokeColor=none;fillColor=none;" vertex="1" parent="1">
          <mxGeometry x="520" y="330" width="80" height="30" as="geometry" />
        </mxCell>
        <mxCell id="rQKXnc7s0rOHXH3DAHLv-13" style="edgeStyle=orthogonalEdgeStyle;rounded=0;orthogonalLoop=1;jettySize=auto;html=1;exitX=0.5;exitY=1;exitDx=0;exitDy=0;entryX=0.5;entryY=0;entryDx=0;entryDy=0;dashed=1;" edge="1" parent="1" source="rQKXnc7s0rOHXH3DAHLv-6" target="rQKXnc7s0rOHXH3DAHLv-7">
          <mxGeometry relative="1" as="geometry" />
        </mxCell>
        <mxCell id="rQKXnc7s0rOHXH3DAHLv-27" style="edgeStyle=orthogonalEdgeStyle;rounded=0;orthogonalLoop=1;jettySize=auto;html=1;exitX=1;exitY=0.5;exitDx=0;exitDy=0;" edge="1" parent="1" source="rQKXnc7s0rOHXH3DAHLv-6">
          <mxGeometry relative="1" as="geometry">
            <mxPoint x="730" y="580" as="targetPoint" />
          </mxGeometry>
        </mxCell>
        <mxCell id="rQKXnc7s0rOHXH3DAHLv-6" value="Iniciar operação" style="ellipse;whiteSpace=wrap;html=1;" vertex="1" parent="1">
          <mxGeometry x="450" y="480" width="150" height="70" as="geometry" />
        </mxCell>
        <mxCell id="rQKXnc7s0rOHXH3DAHLv-14" style="edgeStyle=orthogonalEdgeStyle;rounded=0;orthogonalLoop=1;jettySize=auto;html=1;exitX=0;exitY=0.5;exitDx=0;exitDy=0;entryX=1;entryY=0.5;entryDx=0;entryDy=0;dashed=1;" edge="1" parent="1" source="rQKXnc7s0rOHXH3DAHLv-7" target="rQKXnc7s0rOHXH3DAHLv-8">
          <mxGeometry relative="1" as="geometry" />
        </mxCell>
        <mxCell id="rQKXnc7s0rOHXH3DAHLv-28" style="edgeStyle=orthogonalEdgeStyle;rounded=0;orthogonalLoop=1;jettySize=auto;html=1;exitX=1;exitY=0.5;exitDx=0;exitDy=0;" edge="1" parent="1" source="rQKXnc7s0rOHXH3DAHLv-7">
          <mxGeometry relative="1" as="geometry">
            <mxPoint x="700" y="625" as="targetPoint" />
          </mxGeometry>
        </mxCell>
        <mxCell id="rQKXnc7s0rOHXH3DAHLv-7" value="Executar processos" style="ellipse;whiteSpace=wrap;html=1;" vertex="1" parent="1">
          <mxGeometry x="450" y="590" width="150" height="70" as="geometry" />
        </mxCell>
        <mxCell id="rQKXnc7s0rOHXH3DAHLv-15" style="edgeStyle=orthogonalEdgeStyle;rounded=0;orthogonalLoop=1;jettySize=auto;html=1;exitX=0.5;exitY=1;exitDx=0;exitDy=0;entryX=0;entryY=0.5;entryDx=0;entryDy=0;dashed=1;" edge="1" parent="1" source="rQKXnc7s0rOHXH3DAHLv-8" target="rQKXnc7s0rOHXH3DAHLv-9">
          <mxGeometry relative="1" as="geometry" />
        </mxCell>
        <mxCell id="rQKXnc7s0rOHXH3DAHLv-30" style="edgeStyle=orthogonalEdgeStyle;rounded=0;orthogonalLoop=1;jettySize=auto;html=1;exitX=0;exitY=0.5;exitDx=0;exitDy=0;" edge="1" parent="1" source="rQKXnc7s0rOHXH3DAHLv-8">
          <mxGeometry relative="1" as="geometry">
            <mxPoint x="140" y="625" as="targetPoint" />
          </mxGeometry>
        </mxCell>
        <mxCell id="rQKXnc7s0rOHXH3DAHLv-8" value="Monitorar processos do sistema operacional" style="ellipse;whiteSpace=wrap;html=1;" vertex="1" parent="1">
          <mxGeometry x="205" y="590" width="150" height="70" as="geometry" />
        </mxCell>
        <mxCell id="rQKXnc7s0rOHXH3DAHLv-29" style="edgeStyle=orthogonalEdgeStyle;rounded=0;orthogonalLoop=1;jettySize=auto;html=1;exitX=1;exitY=0.5;exitDx=0;exitDy=0;" edge="1" parent="1" source="rQKXnc7s0rOHXH3DAHLv-9">
          <mxGeometry relative="1" as="geometry">
            <mxPoint x="740" y="690" as="targetPoint" />
          </mxGeometry>
        </mxCell>
        <mxCell id="rQKXnc7s0rOHXH3DAHLv-9" value="Acionar mecanismos de segurança" style="ellipse;whiteSpace=wrap;html=1;" vertex="1" parent="1">
          <mxGeometry x="450" y="710" width="150" height="70" as="geometry" />
        </mxCell>
        <mxCell id="rQKXnc7s0rOHXH3DAHLv-20" value="" style="endArrow=classic;dashed=1;html=1;rounded=0;entryX=1;entryY=1;entryDx=0;entryDy=0;exitX=0;exitY=0;exitDx=0;exitDy=0;endFill=1;" edge="1" parent="1" source="rQKXnc7s0rOHXH3DAHLv-9" target="rQKXnc7s0rOHXH3DAHLv-8">
          <mxGeometry width="50" height="50" relative="1" as="geometry">
            <mxPoint x="490" y="610" as="sourcePoint" />
            <mxPoint x="540" y="560" as="targetPoint" />
          </mxGeometry>
        </mxCell>
        <mxCell id="rQKXnc7s0rOHXH3DAHLv-21" value="&amp;lt;extend&amp;gt;" style="text;html=1;align=center;verticalAlign=middle;resizable=0;points=[];autosize=1;strokeColor=none;fillColor=none;" vertex="1" parent="1">
          <mxGeometry x="350" y="680" width="70" height="30" as="geometry" />
        </mxCell>
        <mxCell id="rQKXnc7s0rOHXH3DAHLv-22" value="&amp;lt;extend&amp;gt;" style="text;html=1;align=center;verticalAlign=middle;resizable=0;points=[];autosize=1;strokeColor=none;fillColor=none;" vertex="1" parent="1">
          <mxGeometry x="305" y="740" width="70" height="30" as="geometry" />
        </mxCell>
        <mxCell id="rQKXnc7s0rOHXH3DAHLv-23" value="&amp;lt;include&amp;gt;" style="text;html=1;align=center;verticalAlign=middle;resizable=0;points=[];autosize=1;strokeColor=none;fillColor=none;" vertex="1" parent="1">
          <mxGeometry x="520" y="450" width="80" height="30" as="geometry" />
        </mxCell>
        <mxCell id="rQKXnc7s0rOHXH3DAHLv-24" value="&amp;lt;include&amp;gt;" style="text;html=1;align=center;verticalAlign=middle;resizable=0;points=[];autosize=1;strokeColor=none;fillColor=none;" vertex="1" parent="1">
          <mxGeometry x="520" y="550" width="80" height="30" as="geometry" />
        </mxCell>
        <mxCell id="rQKXnc7s0rOHXH3DAHLv-25" value="&amp;lt;include&amp;gt;" style="text;html=1;align=center;verticalAlign=middle;resizable=0;points=[];autosize=1;strokeColor=none;fillColor=none;" vertex="1" parent="1">
          <mxGeometry x="360" y="595" width="80" height="30" as="geometry" />
        </mxCell>
      </root>
    </mxGraphModel>
  </diagram>
</mxfile>
